<svg width="28" height="28" fill="none" xmlns="http://www.w3.org/2000/svg"><g filter="url(#AGIX_svg__filter1_d)" clip-path="url(#AGIX_svg__clip0)"><path d="M0 14C0 6.268 6.268 0 14 0s14 6.268 14 14-6.268 14-14 14S0 21.732 0 14z" fill="#1b0e46"></path><path d="M14.738 5.078c.466.466.933.99 1.283 1.515 1.399 2.39.174 4.49-.117 5.073-.117.233-.117.466.058.7.175.29.642.349.875.174 1.107-.933 1.166-2.915 1.224-3.323 0-.408-.058-.816-.175-1.224-.116-.409-.291-.758-.466-1.108a3.557 3.557 0 00-.7-.933c-.466-.525-1.107-.933-1.749-1.224-.116-.058-.233-.058-.291 0-.059.116-.059.233.058.35zM13.054 22.95c-.466-.466-.933-.991-1.283-1.516-1.399-2.39-.174-4.489.117-5.072.175-.233.175-.466 0-.7-.175-.291-.641-.35-.874-.174-1.108.932-1.166 2.915-1.225 3.323 0 .408.059.816.175 1.224.117.408.292.758.467 1.108.175.35.408.641.7.933.466.524 1.107.932 1.748 1.224.059.058.175 0 .233-.058.059-.059.059-.175-.058-.292z" fill="#fff"></path><path d="M18.087 18.14c-.058-1.05-.524-2.216-1.224-3.033-.758-.816-1.633-1.399-2.449-1.865-.816-.525-1.632-.991-2.215-1.574a3.911 3.911 0 01-1.108-2.04c-.116-.817-.058-1.633.292-2.391.35-.816.933-1.516 1.632-2.157.058-.058.117-.175.058-.292-.058-.116-.233-.175-.35-.058-.874.408-1.69 1.05-2.273 1.982-.642.875-.875 2.04-.816 3.149.058.582.174 1.107.408 1.632.233.525.583.991.933 1.4.757.815 1.69 1.34 2.507 1.806.816.467 1.574.933 2.215 1.516a3.525 3.525 0 011.108 2.1c.175.815.058 1.69-.292 2.506-.35.816-.991 1.516-1.69 2.099-.117.058-.117.233-.059.291.058.117.233.175.35.059.816-.525 1.632-1.166 2.215-2.04.583-.875.817-1.983.758-3.09z" fill="#fff"></path></g><defs id="AGIX_svg__defs32"><clipPath id="AGIX_svg__clip0"><rect width="48" height="48" rx="8" fill="#fff" id="AGIX_svg__rect29"></rect></clipPath><filter id="AGIX_svg__filter1_d" width="92" height="92" filterUnits="userSpaceOnUse" color-interpolation-filters="sRGB"><feFlood flood-opacity="0" result="BackgroundImageFix" id="AGIX_svg__feFlood14"></feFlood><feColorMatrix in="SourceAlpha" type="matrix" values="0 0 0 0 0 0 0 0 0 0 0 0 0 0 0 0 0 0 127 0" id="AGIX_svg__feColorMatrix16"></feColorMatrix><feOffset id="AGIX_svg__feOffset18"></feOffset><feGaussianBlur stdDeviation="16" id="AGIX_svg__feGaussianBlur20"></feGaussianBlur><feColorMatrix type="matrix" values="0 0 0 0 0.533333 0 0 0 0 0.596078 0 0 0 0 0.666667 0 0 0 0.15 0" id="AGIX_svg__feColorMatrix22"></feColorMatrix><feBlend mode="normal" in2="BackgroundImageFix" result="effect1_dropShadow" id="AGIX_svg__feBlend24"></feBlend><feBlend mode="normal" in="SourceGraphic" in2="effect1_dropShadow" result="shape" id="AGIX_svg__feBlend26"></feBlend></filter></defs></svg>