<svg width="24" height="24" fill="none" xmlns="http://www.w3.org/2000/svg"><path d="M9 4c-4.42 0-8 3.58-8 8s3.58 8 8 8 8-3.58 8-8-3.58-8-8-8zm0 14c-3.31 0-6-2.69-6-6s2.69-6 6-6 6 2.69 6 6-2.69 6-6 6zM20.25 3.75L23 5l-2.75 1.25L19 9l-1.25-2.75L15 5l2.75-1.25L19 1l1.25 2.75zm0 14L23 19l-2.75 1.25L19 23l-1.25-2.75L15 19l2.75-1.25L19 15l1.25 2.75z" fill="#A4A8C1"></path><path d="M12 12.022c0 .592-.067 1.14-.19 1.62-.134.48-.335.894-.603 1.24a2.646 2.646 0 01-1.017.794c-.413.19-.905.28-1.475.28H6.492V8.044h2.223c.57 0 1.062.09 1.475.28.414.19.749.446 1.017.792.268.347.469.771.603 1.252.123.491.19 1.039.19 1.653zm-1.799 0c0-.793-.134-1.396-.402-1.81-.28-.402-.626-.603-1.061-.603h-.436v4.782h.436c.435 0 .782-.201 1.061-.615.268-.402.402-.983.402-1.754z" fill="#A4A8C1"></path></svg>