<svg width="28" height="28" fill="none" xmlns="http://www.w3.org/2000/svg"><g clip-path="url(#ETH_svg__clip0)"><g filter="url(#ETH_svg__filter0_d)"><path d="M0 14C0 6.268 6.268 0 14 0s14 6.268 14 14-6.268 14-14 14S0 21.732 0 14z" fill="#e4e4e4"></path><path d="M13.896 4.667l-.125.425v12.343l.125.125 5.73-3.387z" fill="#343434"></path><path d="M13.896 4.667l-5.73 9.506 5.73 3.387v-5.99z" fill="#8c8c8c"></path><path d="M13.896 18.645l-.07.086v4.397l.07.206 5.733-8.074z" fill="#3c3c3b"></path><path d="M13.896 23.333v-4.688l-5.73-3.386z" fill="#8c8c8c"></path><path d="M13.896 17.56l5.73-3.387-5.73-2.604z" fill="#141414"></path><path d="M8.167 14.173l5.73 3.387v-5.99z" fill="#393939"></path></g></g><defs id="ETH_svg__defs64"><filter id="ETH_svg__filter0_d" x="-30" y="-22" width="92" height="92" filterUnits="userSpaceOnUse" color-interpolation-filters="sRGB"><feFlood flood-opacity="0" result="BackgroundImageFix" id="ETH_svg__feFlood26"></feFlood><feColorMatrix in="SourceAlpha" type="matrix" values="0 0 0 0 0 0 0 0 0 0 0 0 0 0 0 0 0 0 127 0" id="ETH_svg__feColorMatrix28"></feColorMatrix><feOffset id="ETH_svg__feOffset30"></feOffset><feGaussianBlur stdDeviation="16" id="ETH_svg__feGaussianBlur32"></feGaussianBlur><feColorMatrix type="matrix" values="0 0 0 0 0.533333 0 0 0 0 0.596078 0 0 0 0 0.666667 0 0 0 0.15 0" id="ETH_svg__feColorMatrix34"></feColorMatrix><feBlend mode="normal" in2="BackgroundImageFix" result="effect1_dropShadow" id="ETH_svg__feBlend36"></feBlend><feBlend mode="normal" in="SourceGraphic" in2="effect1_dropShadow" result="shape" id="ETH_svg__feBlend38"></feBlend></filter><filter id="ETH_svg__filter1_d" x="-14" y="-22" width="92" height="92" filterUnits="userSpaceOnUse" color-interpolation-filters="sRGB"><feFlood flood-opacity="0" result="BackgroundImageFix" id="ETH_svg__feFlood41"></feFlood><feColorMatrix in="SourceAlpha" type="matrix" values="0 0 0 0 0 0 0 0 0 0 0 0 0 0 0 0 0 0 127 0" id="ETH_svg__feColorMatrix43"></feColorMatrix><feOffset id="ETH_svg__feOffset45"></feOffset><feGaussianBlur stdDeviation="16" id="ETH_svg__feGaussianBlur47"></feGaussianBlur><feColorMatrix type="matrix" values="0 0 0 0 0.533333 0 0 0 0 0.596078 0 0 0 0 0.666667 0 0 0 0.15 0" id="ETH_svg__feColorMatrix49"></feColorMatrix><feBlend mode="normal" in2="BackgroundImageFix" result="effect1_dropShadow" id="ETH_svg__feBlend51"></feBlend><feBlend mode="normal" in="SourceGraphic" in2="effect1_dropShadow" result="shape" id="ETH_svg__feBlend53"></feBlend></filter><linearGradient id="ETH_svg__paint0_linear" x1="32.02" y1="38" x2="32.02" y2="10" gradientUnits="userSpaceOnUse"><stop stop-color="#003EC7" id="ETH_svg__stop56"></stop><stop offset="1" stop-color="#520EB5" id="ETH_svg__stop58"></stop></linearGradient><clipPath id="ETH_svg__clip0"><rect width="48" height="48" rx="8" fill="#fff" id="ETH_svg__rect61"></rect></clipPath></defs></svg>