<svg width="20" height="20" fill="none" xmlns="http://www.w3.org/2000/svg"><mask id="how-it-works_svg__a" fill="#fff"><path d="M14.25 0A3.75 3.75 0 0118 3.75v2.636A8.217 8.217 0 0012.75 4.5h3.75v-.75a2.25 2.25 0 00-2.25-2.25H3.75A2.25 2.25 0 001.5 3.75v.75h11.25A8.215 8.215 0 008.005 6H1.5v8.25a2.25 2.25 0 002.25 2.25H5.4c.274.537.606 1.04.986 1.5H3.75A3.75 3.75 0 010 14.25V3.75A3.75 3.75 0 013.75 0h10.5z"></path></mask><path d="M14.25 0A3.75 3.75 0 0118 3.75v2.636A8.217 8.217 0 0012.75 4.5h3.75v-.75a2.25 2.25 0 00-2.25-2.25H3.75A2.25 2.25 0 001.5 3.75v.75h11.25A8.215 8.215 0 008.005 6H1.5v8.25a2.25 2.25 0 002.25 2.25H5.4c.274.537.606 1.04.986 1.5H3.75A3.75 3.75 0 010 14.25V3.75A3.75 3.75 0 013.75 0h10.5z" fill="#212121"></path><path d="M18 6.386l-.956 1.155L19.5 9.573V6.385H18zM12.75 4.5L12.748 3l.002 3V4.5zm3.75 0V6H18V4.5h-1.5zm0-.75H18h-1.5zm-15 .75H0V6h1.5V4.5zM8.005 6v1.5h.475l.389-.273L8.005 6zM1.5 6V4.5H0V6h1.5zm2.25 10.5V18v-1.5zm1.65 0l1.336-.683L6.318 15H5.4v1.5zm.986 1.5v1.5h3.18l-2.023-2.454L6.386 18zM3.75 18v-1.5V18zm0-18v-1.5V0zm10.5 1.5a2.25 2.25 0 011.591.659L17.962.038A5.25 5.25 0 0014.25-1.5v3zm1.591.659c.422.422.659.994.659 1.591h3A5.25 5.25 0 0017.962.038l-2.121 2.121zM16.5 3.75v2.636h3V3.75h-3zm2.456 1.48A9.717 9.717 0 0012.748 3l.004 3a6.717 6.717 0 014.292 1.541l1.912-2.311zM12.75 6h3.75V3h-3.75v3zM18 4.5v-.75h-3v.75h3zm0-.75a3.75 3.75 0 00-1.098-2.652L14.78 3.22c.141.14.22.331.22.53h3zm-1.098-2.652A3.75 3.75 0 0014.25 0v3a.75.75 0 01.53.22l2.122-2.122zM14.25 0H3.75v3h10.5V0zM3.75 0a3.75 3.75 0 00-2.652 1.098L3.22 3.22A.75.75 0 013.75 3V0zM1.098 1.098A3.75 3.75 0 000 3.75h3a.75.75 0 01.22-.53L1.098 1.098zM0 3.75v.75h3v-.75H0zM1.5 6h11.25V3H1.5v3zm11.25-3a9.715 9.715 0 00-5.608 1.773L8.87 7.227A6.715 6.715 0 0112.75 6V3zM8.005 4.5H1.5v3h6.505v-3zM0 6v8.25h3V6H0zm0 8.25a3.75 3.75 0 001.098 2.652L3.22 14.78a.75.75 0 01-.22-.53H0zm1.098 2.652A3.75 3.75 0 003.75 18v-3a.75.75 0 01-.53-.22l-2.122 2.122zM3.75 18H5.4v-3H3.75v3zm.314-.817a9.8 9.8 0 001.164 1.771l2.315-1.908a6.798 6.798 0 01-.807-1.229l-2.672 1.366zm2.322-.683H3.75v3h2.636v-3zm-2.636 0a2.25 2.25 0 01-1.591-.659L.038 17.962A5.25 5.25 0 003.75 19.5v-3zm-1.591-.659A2.25 2.25 0 011.5 14.25h-3a5.25 5.25 0 001.538 3.712l2.121-2.121zM1.5 14.25V3.75h-3v10.5h3zm0-10.5c0-.597.237-1.169.659-1.591L.038.038A5.25 5.25 0 00-1.5 3.75h3zm.659-1.591A2.25 2.25 0 013.75 1.5v-3A5.25 5.25 0 00.038.038l2.121 2.121zM3.75 1.5h10.5v-3H3.75v3z" fill="#212121" mask="url(#how-it-works_svg__a)"></path><path d="M19.5 12.75a6.75 6.75 0 11-13.5 0 6.75 6.75 0 0113.5 0zm-6.75 2.82a.938.938 0 100 1.875.938.938 0 000-1.875zm0-7.316c-1.572 0-2.796 1.228-2.78 2.933a.75.75 0 101.5-.015c-.009-.869.54-1.418 1.28-1.418.708 0 1.28.588 1.28 1.426 0 .303-.105.472-.54.816l-.416.322C12.315 12.924 12 13.393 12 14.25a.75.75 0 001.488.135l.017-.234c.025-.222.15-.381.518-.672l.416-.322c.77-.616 1.09-1.098 1.09-1.977 0-1.656-1.232-2.925-2.779-2.925z" fill="#212121"></path></svg>