<svg id="logo_beta_svg__Layer_1" data-name="Layer 1" xmlns="http://www.w3.org/2000/svg" xmlns:xlink="http://www.w3.org/1999/xlink" viewBox="0 0 1022.3 238.98" height="238.98" width="1022.3" ><defs><linearGradient id="logo_beta_svg__linear-gradient" x1="16.45" y1="118.87" x2="242.2" y2="118.87" gradientUnits="userSpaceOnUse"><stop offset="0" stop-color="#201edf"></stop><stop offset="0.06" stop-color="#2027de"></stop><stop offset="0.15" stop-color="#2141db"></stop><stop offset="0.27" stop-color="#236ad7"></stop><stop offset="0.41" stop-color="#25a4d1"></stop><stop offset="0.55" stop-color="#27e4ca"></stop><stop offset="0.87" stop-color="#e5c500"></stop><stop offset="0.99" stop-color="#e25900"></stop></linearGradient><linearGradient id="logo_beta_svg__linear-gradient-2" x1="18.57" y1="119.48" x2="240.88" y2="119.48" xlink:href="#logo_beta_svg__linear-gradient"></linearGradient><linearGradient id="logo_beta_svg__linear-gradient-3" x1="20.69" y1="120.1" x2="239.59" y2="120.1" xlink:href="#logo_beta_svg__linear-gradient"></linearGradient><linearGradient id="logo_beta_svg__linear-gradient-4" x1="22.8" y1="120.73" x2="238.32" y2="120.73" xlink:href="#logo_beta_svg__linear-gradient"></linearGradient><linearGradient id="logo_beta_svg__linear-gradient-5" x1="24.91" y1="121.36" x2="237.07" y2="121.36" xlink:href="#logo_beta_svg__linear-gradient"></linearGradient><linearGradient id="logo_beta_svg__linear-gradient-6" x1="27.02" y1="121.99" x2="235.84" y2="121.99" xlink:href="#logo_beta_svg__linear-gradient"></linearGradient><linearGradient id="logo_beta_svg__linear-gradient-7" x1="29.13" y1="122.62" x2="234.63" y2="122.62" xlink:href="#logo_beta_svg__linear-gradient"></linearGradient><linearGradient id="logo_beta_svg__linear-gradient-8" x1="31.24" y1="123.24" x2="233.45" y2="123.24" xlink:href="#logo_beta_svg__linear-gradient"></linearGradient><linearGradient id="logo_beta_svg__linear-gradient-9" x1="33.35" y1="123.85" x2="232.29" y2="123.85" xlink:href="#logo_beta_svg__linear-gradient"></linearGradient><linearGradient id="logo_beta_svg__linear-gradient-10" x1="35.46" y1="124.45" x2="231.16" y2="124.45" xlink:href="#logo_beta_svg__linear-gradient"></linearGradient><linearGradient id="logo_beta_svg__linear-gradient-11" x1="37.57" y1="125.03" x2="230.06" y2="125.03" xlink:href="#logo_beta_svg__linear-gradient"></linearGradient><linearGradient id="logo_beta_svg__linear-gradient-12" x1="39.68" y1="125.59" x2="228.98" y2="125.59" xlink:href="#logo_beta_svg__linear-gradient"></linearGradient><linearGradient id="logo_beta_svg__linear-gradient-13" x1="41.78" y1="126.12" x2="227.94" y2="126.12" xlink:href="#logo_beta_svg__linear-gradient"></linearGradient><linearGradient id="logo_beta_svg__linear-gradient-14" x1="43.89" y1="126.62" x2="226.93" y2="126.62" xlink:href="#logo_beta_svg__linear-gradient"></linearGradient><linearGradient id="logo_beta_svg__linear-gradient-15" x1="46" y1="127.09" x2="225.96" y2="127.09" xlink:href="#logo_beta_svg__linear-gradient"></linearGradient><linearGradient id="logo_beta_svg__linear-gradient-16" x1="48.1" y1="127.52" x2="225.02" y2="127.52" xlink:href="#logo_beta_svg__linear-gradient"></linearGradient><linearGradient id="logo_beta_svg__linear-gradient-17" x1="50.21" y1="127.91" x2="224.12" y2="127.91" xlink:href="#logo_beta_svg__linear-gradient"></linearGradient><linearGradient id="logo_beta_svg__linear-gradient-18" x1="52.32" y1="128.25" x2="223.26" y2="128.25" xlink:href="#logo_beta_svg__linear-gradient"></linearGradient><linearGradient id="logo_beta_svg__linear-gradient-19" x1="54.42" y1="128.55" x2="222.44" y2="128.55" xlink:href="#logo_beta_svg__linear-gradient"></linearGradient><linearGradient id="logo_beta_svg__linear-gradient-20" x1="56.53" y1="128.8" x2="221.66" y2="128.8" xlink:href="#logo_beta_svg__linear-gradient"></linearGradient><linearGradient id="logo_beta_svg__linear-gradient-21" x1="58.63" y1="128.99" x2="220.93" y2="128.99" xlink:href="#logo_beta_svg__linear-gradient"></linearGradient><linearGradient id="logo_beta_svg__linear-gradient-22" x1="60.74" y1="129.14" x2="220.25" y2="129.14" xlink:href="#logo_beta_svg__linear-gradient"></linearGradient><linearGradient id="logo_beta_svg__linear-gradient-23" x1="62.84" y1="129.23" x2="219.62" y2="129.23" xlink:href="#logo_beta_svg__linear-gradient"></linearGradient><linearGradient id="logo_beta_svg__linear-gradient-24" x1="64.95" y1="129.26" x2="219.02" y2="129.26" xlink:href="#logo_beta_svg__linear-gradient"></linearGradient><linearGradient id="logo_beta_svg__linear-gradient-25" x1="67.05" y1="129.25" x2="218.51" y2="129.25" xlink:href="#logo_beta_svg__linear-gradient"></linearGradient><linearGradient id="logo_beta_svg__linear-gradient-26" x1="69.16" y1="129.19" x2="218.06" y2="129.19" xlink:href="#logo_beta_svg__linear-gradient"></linearGradient><linearGradient id="logo_beta_svg__linear-gradient-27" x1="71.26" y1="129.07" x2="217.68" y2="129.07" xlink:href="#logo_beta_svg__linear-gradient"></linearGradient><linearGradient id="logo_beta_svg__linear-gradient-28" x1="73.36" y1="128.92" x2="217.38" y2="128.92" xlink:href="#logo_beta_svg__linear-gradient"></linearGradient><linearGradient id="logo_beta_svg__linear-gradient-29" x1="75.47" y1="128.72" x2="217.16" y2="128.72" xlink:href="#logo_beta_svg__linear-gradient"></linearGradient><linearGradient id="logo_beta_svg__linear-gradient-30" x1="77.57" y1="128.48" x2="217.02" y2="128.48" xlink:href="#logo_beta_svg__linear-gradient"></linearGradient><linearGradient id="logo_beta_svg__linear-gradient-31" x1="79.67" y1="128.21" x2="216.98" y2="128.21" xlink:href="#logo_beta_svg__linear-gradient"></linearGradient><linearGradient id="logo_beta_svg__linear-gradient-32" x1="81.78" y1="127.9" x2="217.03" y2="127.9" xlink:href="#logo_beta_svg__linear-gradient"></linearGradient><linearGradient id="logo_beta_svg__linear-gradient-33" x1="83.88" y1="127.57" x2="217.19" y2="127.57" xlink:href="#logo_beta_svg__linear-gradient"></linearGradient><linearGradient id="logo_beta_svg__linear-gradient-34" x1="85.98" y1="127.21" x2="217.46" y2="127.21" xlink:href="#logo_beta_svg__linear-gradient"></linearGradient><linearGradient id="logo_beta_svg__linear-gradient-35" x1="88.08" y1="126.83" x2="217.84" y2="126.83" xlink:href="#logo_beta_svg__linear-gradient"></linearGradient><linearGradient id="logo_beta_svg__linear-gradient-36" x1="90.19" y1="126.43" x2="218.34" y2="126.43" xlink:href="#logo_beta_svg__linear-gradient"></linearGradient><linearGradient id="logo_beta_svg__linear-gradient-37" x1="90.71" y1="126.01" x2="218.97" y2="126.01" xlink:href="#logo_beta_svg__linear-gradient"></linearGradient><linearGradient id="logo_beta_svg__linear-gradient-38" x1="89.86" y1="125.57" x2="219.73" y2="125.57" xlink:href="#logo_beta_svg__linear-gradient"></linearGradient><linearGradient id="logo_beta_svg__linear-gradient-39" x1="88.98" y1="125.13" x2="220.62" y2="125.13" xlink:href="#logo_beta_svg__linear-gradient"></linearGradient><linearGradient id="logo_beta_svg__linear-gradient-40" x1="88.09" y1="124.67" x2="221.63" y2="124.67" xlink:href="#logo_beta_svg__linear-gradient"></linearGradient><linearGradient id="logo_beta_svg__linear-gradient-41" x1="87.18" y1="124.21" x2="222.77" y2="124.21" xlink:href="#logo_beta_svg__linear-gradient"></linearGradient><linearGradient id="logo_beta_svg__linear-gradient-42" x1="86.25" y1="123.74" x2="224.03" y2="123.74" xlink:href="#logo_beta_svg__linear-gradient"></linearGradient><linearGradient id="logo_beta_svg__linear-gradient-43" x1="85.3" y1="123.26" x2="225.4" y2="123.26" xlink:href="#logo_beta_svg__linear-gradient"></linearGradient><linearGradient id="logo_beta_svg__linear-gradient-44" x1="84.33" y1="122.78" x2="226.9" y2="122.78" xlink:href="#logo_beta_svg__linear-gradient"></linearGradient><linearGradient id="logo_beta_svg__linear-gradient-45" x1="83.35" y1="122.29" x2="228.5" y2="122.29" xlink:href="#logo_beta_svg__linear-gradient"></linearGradient><linearGradient id="logo_beta_svg__linear-gradient-46" x1="82.34" y1="121.8" x2="230.21" y2="121.8" xlink:href="#logo_beta_svg__linear-gradient"></linearGradient><linearGradient id="logo_beta_svg__linear-gradient-47" x1="81.32" y1="121.31" x2="232.01" y2="121.31" xlink:href="#logo_beta_svg__linear-gradient"></linearGradient><linearGradient id="logo_beta_svg__linear-gradient-48" x1="80.27" y1="120.82" x2="233.89" y2="120.82" xlink:href="#logo_beta_svg__linear-gradient"></linearGradient><linearGradient id="logo_beta_svg__linear-gradient-49" x1="79.21" y1="120.33" x2="235.86" y2="120.33" xlink:href="#logo_beta_svg__linear-gradient"></linearGradient><linearGradient id="logo_beta_svg__linear-gradient-50" x1="78.12" y1="119.84" x2="237.91" y2="119.84" xlink:href="#logo_beta_svg__linear-gradient"></linearGradient><linearGradient id="logo_beta_svg__linear-gradient-51" x1="77.01" y1="119.36" x2="240.02" y2="119.36" xlink:href="#logo_beta_svg__linear-gradient"></linearGradient><linearGradient id="logo_beta_svg__linear-gradient-52" x1="75.88" y1="118.87" x2="242.2" y2="118.87" xlink:href="#logo_beta_svg__linear-gradient"></linearGradient><style>.logo_beta_svg__cls-1{fill:#191919}</style><linearGradient id="logo_beta_svg__linear-gradient" x1="16.45" y1="118.87" x2="242.2" y2="118.87" gradientUnits="userSpaceOnUse"><stop offset="0" stop-color="#201edf"></stop><stop offset="0.06" stop-color="#2027de"></stop><stop offset="0.15" stop-color="#2141db"></stop><stop offset="0.27" stop-color="#236ad7"></stop><stop offset="0.41" stop-color="#25a4d1"></stop><stop offset="0.55" stop-color="#27e4ca"></stop><stop offset="0.87" stop-color="#e5c500"></stop><stop offset="0.99" stop-color="#e25900"></stop></linearGradient><linearGradient id="logo_beta_svg__linear-gradient-2" x1="18.57" y1="119.48" x2="240.88" y2="119.48" xlink:href="#logo_beta_svg__linear-gradient"></linearGradient><linearGradient id="logo_beta_svg__linear-gradient-3" x1="20.69" y1="120.1" x2="239.59" y2="120.1" xlink:href="#logo_beta_svg__linear-gradient"></linearGradient><linearGradient id="logo_beta_svg__linear-gradient-4" x1="22.8" y1="120.73" x2="238.32" y2="120.73" xlink:href="#logo_beta_svg__linear-gradient"></linearGradient><linearGradient id="logo_beta_svg__linear-gradient-5" x1="24.91" y1="121.36" x2="237.07" y2="121.36" xlink:href="#logo_beta_svg__linear-gradient"></linearGradient><linearGradient id="logo_beta_svg__linear-gradient-6" x1="27.02" y1="121.99" x2="235.84" y2="121.99" xlink:href="#logo_beta_svg__linear-gradient"></linearGradient><linearGradient id="logo_beta_svg__linear-gradient-7" x1="29.13" y1="122.62" x2="234.63" y2="122.62" xlink:href="#logo_beta_svg__linear-gradient"></linearGradient><linearGradient id="logo_beta_svg__linear-gradient-8" x1="31.24" y1="123.24" x2="233.45" y2="123.24" xlink:href="#logo_beta_svg__linear-gradient"></linearGradient><linearGradient id="logo_beta_svg__linear-gradient-9" x1="33.35" y1="123.85" x2="232.29" y2="123.85" xlink:href="#logo_beta_svg__linear-gradient"></linearGradient><linearGradient id="logo_beta_svg__linear-gradient-10" x1="35.46" y1="124.45" x2="231.16" y2="124.45" xlink:href="#logo_beta_svg__linear-gradient"></linearGradient><linearGradient id="logo_beta_svg__linear-gradient-11" x1="37.57" y1="125.03" x2="230.06" y2="125.03" xlink:href="#logo_beta_svg__linear-gradient"></linearGradient><linearGradient id="logo_beta_svg__linear-gradient-12" x1="39.68" y1="125.59" x2="228.98" y2="125.59" xlink:href="#logo_beta_svg__linear-gradient"></linearGradient><linearGradient id="logo_beta_svg__linear-gradient-13" x1="41.78" y1="126.12" x2="227.94" y2="126.12" xlink:href="#logo_beta_svg__linear-gradient"></linearGradient><linearGradient id="logo_beta_svg__linear-gradient-14" x1="43.89" y1="126.62" x2="226.93" y2="126.62" xlink:href="#logo_beta_svg__linear-gradient"></linearGradient><linearGradient id="logo_beta_svg__linear-gradient-15" x1="46" y1="127.09" x2="225.96" y2="127.09" xlink:href="#logo_beta_svg__linear-gradient"></linearGradient><linearGradient id="logo_beta_svg__linear-gradient-16" x1="48.1" y1="127.52" x2="225.02" y2="127.52" xlink:href="#logo_beta_svg__linear-gradient"></linearGradient><linearGradient id="logo_beta_svg__linear-gradient-17" x1="50.21" y1="127.91" x2="224.12" y2="127.91" xlink:href="#logo_beta_svg__linear-gradient"></linearGradient><linearGradient id="logo_beta_svg__linear-gradient-18" x1="52.32" y1="128.25" x2="223.26" y2="128.25" xlink:href="#logo_beta_svg__linear-gradient"></linearGradient><linearGradient id="logo_beta_svg__linear-gradient-19" x1="54.42" y1="128.55" x2="222.44" y2="128.55" xlink:href="#logo_beta_svg__linear-gradient"></linearGradient><linearGradient id="logo_beta_svg__linear-gradient-20" x1="56.53" y1="128.8" x2="221.66" y2="128.8" xlink:href="#logo_beta_svg__linear-gradient"></linearGradient><linearGradient id="logo_beta_svg__linear-gradient-21" x1="58.63" y1="128.99" x2="220.93" y2="128.99" xlink:href="#logo_beta_svg__linear-gradient"></linearGradient><linearGradient id="logo_beta_svg__linear-gradient-22" x1="60.74" y1="129.14" x2="220.25" y2="129.14" xlink:href="#logo_beta_svg__linear-gradient"></linearGradient><linearGradient id="logo_beta_svg__linear-gradient-23" x1="62.84" y1="129.23" x2="219.62" y2="129.23" xlink:href="#logo_beta_svg__linear-gradient"></linearGradient><linearGradient id="logo_beta_svg__linear-gradient-24" x1="64.95" y1="129.26" x2="219.02" y2="129.26" xlink:href="#logo_beta_svg__linear-gradient"></linearGradient><linearGradient id="logo_beta_svg__linear-gradient-25" x1="67.05" y1="129.25" x2="218.51" y2="129.25" xlink:href="#logo_beta_svg__linear-gradient"></linearGradient><linearGradient id="logo_beta_svg__linear-gradient-26" x1="69.16" y1="129.19" x2="218.06" y2="129.19" xlink:href="#logo_beta_svg__linear-gradient"></linearGradient><linearGradient id="logo_beta_svg__linear-gradient-27" x1="71.26" y1="129.07" x2="217.68" y2="129.07" xlink:href="#logo_beta_svg__linear-gradient"></linearGradient><linearGradient id="logo_beta_svg__linear-gradient-28" x1="73.36" y1="128.92" x2="217.38" y2="128.92" xlink:href="#logo_beta_svg__linear-gradient"></linearGradient><linearGradient id="logo_beta_svg__linear-gradient-29" x1="75.47" y1="128.72" x2="217.16" y2="128.72" xlink:href="#logo_beta_svg__linear-gradient"></linearGradient><linearGradient id="logo_beta_svg__linear-gradient-30" x1="77.57" y1="128.48" x2="217.02" y2="128.48" xlink:href="#logo_beta_svg__linear-gradient"></linearGradient><linearGradient id="logo_beta_svg__linear-gradient-31" x1="79.67" y1="128.21" x2="216.98" y2="128.21" xlink:href="#logo_beta_svg__linear-gradient"></linearGradient><linearGradient id="logo_beta_svg__linear-gradient-32" x1="81.78" y1="127.9" x2="217.03" y2="127.9" xlink:href="#logo_beta_svg__linear-gradient"></linearGradient><linearGradient id="logo_beta_svg__linear-gradient-33" x1="83.88" y1="127.57" x2="217.19" y2="127.57" xlink:href="#logo_beta_svg__linear-gradient"></linearGradient><linearGradient id="logo_beta_svg__linear-gradient-34" x1="85.98" y1="127.21" x2="217.46" y2="127.21" xlink:href="#logo_beta_svg__linear-gradient"></linearGradient><linearGradient id="logo_beta_svg__linear-gradient-35" x1="88.08" y1="126.83" x2="217.84" y2="126.83" xlink:href="#logo_beta_svg__linear-gradient"></linearGradient><linearGradient id="logo_beta_svg__linear-gradient-36" x1="90.19" y1="126.43" x2="218.34" y2="126.43" xlink:href="#logo_beta_svg__linear-gradient"></linearGradient><linearGradient id="logo_beta_svg__linear-gradient-37" x1="90.71" y1="126.01" x2="218.97" y2="126.01" xlink:href="#logo_beta_svg__linear-gradient"></linearGradient><linearGradient id="logo_beta_svg__linear-gradient-38" x1="89.86" y1="125.57" x2="219.73" y2="125.57" xlink:href="#logo_beta_svg__linear-gradient"></linearGradient><linearGradient id="logo_beta_svg__linear-gradient-39" x1="88.98" y1="125.13" x2="220.62" y2="125.13" xlink:href="#logo_beta_svg__linear-gradient"></linearGradient><linearGradient id="logo_beta_svg__linear-gradient-40" x1="88.09" y1="124.67" x2="221.63" y2="124.67" xlink:href="#logo_beta_svg__linear-gradient"></linearGradient><linearGradient id="logo_beta_svg__linear-gradient-41" x1="87.18" y1="124.21" x2="222.77" y2="124.21" xlink:href="#logo_beta_svg__linear-gradient"></linearGradient><linearGradient id="logo_beta_svg__linear-gradient-42" x1="86.25" y1="123.74" x2="224.03" y2="123.74" xlink:href="#logo_beta_svg__linear-gradient"></linearGradient><linearGradient id="logo_beta_svg__linear-gradient-43" x1="85.3" y1="123.26" x2="225.4" y2="123.26" xlink:href="#logo_beta_svg__linear-gradient"></linearGradient><linearGradient id="logo_beta_svg__linear-gradient-44" x1="84.33" y1="122.78" x2="226.9" y2="122.78" xlink:href="#logo_beta_svg__linear-gradient"></linearGradient><linearGradient id="logo_beta_svg__linear-gradient-45" x1="83.35" y1="122.29" x2="228.5" y2="122.29" xlink:href="#logo_beta_svg__linear-gradient"></linearGradient><linearGradient id="logo_beta_svg__linear-gradient-46" x1="82.34" y1="121.8" x2="230.21" y2="121.8" xlink:href="#logo_beta_svg__linear-gradient"></linearGradient><linearGradient id="logo_beta_svg__linear-gradient-47" x1="81.32" y1="121.31" x2="232.01" y2="121.31" xlink:href="#logo_beta_svg__linear-gradient"></linearGradient><linearGradient id="logo_beta_svg__linear-gradient-48" x1="80.27" y1="120.82" x2="233.89" y2="120.82" xlink:href="#logo_beta_svg__linear-gradient"></linearGradient><linearGradient id="logo_beta_svg__linear-gradient-49" x1="79.21" y1="120.33" x2="235.86" y2="120.33" xlink:href="#logo_beta_svg__linear-gradient"></linearGradient><linearGradient id="logo_beta_svg__linear-gradient-50" x1="78.12" y1="119.84" x2="237.91" y2="119.84" xlink:href="#logo_beta_svg__linear-gradient"></linearGradient><linearGradient id="logo_beta_svg__linear-gradient-51" x1="77.01" y1="119.36" x2="240.02" y2="119.36" xlink:href="#logo_beta_svg__linear-gradient"></linearGradient><linearGradient id="logo_beta_svg__linear-gradient-52" x1="75.88" y1="118.87" x2="242.2" y2="118.87" xlink:href="#logo_beta_svg__linear-gradient"></linearGradient></defs><path class="logo_beta_svg__cls-1" d="M287.46 123.56H277.2c0 11.91 11.06 23 26.62 23 14.89 0 24-9 25.34-19.89 1.53-12.14-6.1-20.18-20.33-23.8l-9.93-2.41c-9.61-2.3-10.82-7.26-10.83-10.58 0-6.94 6.82-11.48 14.22-11.49 8.27 0 14.34 4.84 14.36 12.45h10.25c0-13.68-10.62-22.26-24.52-22.24-12.9 0-24.59 8.64-24.57 21.43 0 6.62 2.45 15.77 18.57 19.83l9.81 2.41c6.85 1.54 13.58 5.39 12.93 13.55-.87 5.74-5.61 11.15-15.32 11.17s-16.22-6.82-16.34-13.44zM354 145.42h-9.93l-.07-51.5h9.93l.08 51.52zm-12-70.48a6.69 6.69 0 007 6.5 6.52 6.52 0 10-7-6.5zM381 117.58c0-10.92 7.26-15 14.54-15 7.06 0 11.37 5 11.38 13.66l.05 29.12h10v-29.79c0-14.45-7.09-22.82-19.89-22.8-5.62 0-13 2.66-16.09 8.85v-7.76h-10l.08 51.51h10v-27.8zM441.42 152.68c-1.32.66-7.05 3.87-8.37 4.43A26.18 26.18 0 00456.34 171c17 0 28.12-9.31 28.08-33.57l-.06-43.69h-9.93v8c-3.42-6-10.93-9.14-18.1-9.13-14.12 0-26.13 10.63-26.1 27.06s12.06 26.68 26.18 26.66c7.17 0 15-3.44 18.07-9.51 0 .44.12.77.12 1.21 0 17.1-7.14 23.4-18.28 23.42a17.08 17.08 0 01-14.91-8.81zm32.94-33.14c0 10.92-8.8 17-17.08 17-9.26 0-16.77-6.48-16.79-17 0-10 7.48-17.11 16.74-17.12s17.12 6 17.13 17.07zM536.73 121.44c0 11-7.26 15-14.54 15-7.06 0-11.26-5.06-11.27-13.66V93.65h-10v29.78c-.09 14.45 7 22.83 19.89 22.81 5.63 0 12.91-2.67 16-8.85v7.72h10l-.07-51.52h-10v27.8zM563.73 65.58l.12 79.53 10.04-.01-.12-79.54-10.04.02zM632.09 145H642V93.48h-9.93v7.72c-3.43-5.84-10.93-8.81-18.1-8.8-14.12 0-26.13 10.41-26.11 26.85s12.07 26.89 26.19 26.87c7.17 0 14.66-3.22 18.07-9.07V145zm-.09-25.91c0 10.92-7.92 17.22-17.08 17.23s-16.77-7-16.79-17.18 7.48-16.89 16.74-16.9c8.28 0 17.11 5.82 17.13 16.85zM669.11 126.21c0-13.68 4.16-24.28 14.08-24.29a17.81 17.81 0 017.62 1.75l1.53-9.37c-1.44-1-5.3-2-8.94-2-6.73 0-11.69 3.66-14.32 12.71V93.42h-10l.02 51.58h10v-18.75zM713.2 144.9h-9.93l-.08-51.52h9.93l.08 51.52zm-12-70.48a6.69 6.69 0 007 6.5 6.52 6.52 0 10-7-6.5zM743.74 93.33l-.03-19.41-10.04.02.03 19.41-9.27.01.02 8.5 9.26-.02.06 43.03 10.04-.02-.06-43.02 10.92-.02-.01-8.49-10.92.01zM783.45 169.84l31.88-76.61-10.7.02-15.39 37.31-15.5-37.27-10.7.02 20.7 49.94-10.77 26.6 10.48-.01zM827.82 68.34h23.69q16.47 0 25.52 9.94t9.08 28.1q0 18.25-9 28.29t-25.49 10.03h-23.69zM851 135.47q25 0 25-29.11 0-28.86-25-28.83h-13.33l.09 57.94zM944.21 144.56L937 125.69h-34.25l-7.21 18.89h-10l30-76.44h8.28l30.37 76.35zM906 116.94h27.6l-13.84-36.4zM968.23 140.61a30.68 30.68 0 01-11-13.56q-3.87-8.79-3.88-20.7t3.77-20.82A29.9 29.9 0 01968.09 72a32.12 32.12 0 0133.54 0 30.12 30.12 0 0110.92 13.5 52 52 0 013.83 20.71q0 12-3.77 20.82a30.32 30.32 0 01-10.93 13.58 31.62 31.62 0 01-33.45.05zm32.53-12.11q5.65-7.84 5.63-22.33T1000.7 84q-5.69-7.77-15.86-7.76t-15.78 7.81q-5.61 7.79-5.59 22.16t5.7 22.31q5.67 7.83 15.76 7.81t15.83-7.83z" fill="#191919"></path><text transform="translate(822.95 233.31)" font-size="79.98" fill="#FF8B00" font-family="Open Sans" font-weight="700">BE<tspan x="101.89" y="0" letter-spacing="-.07em" fill="#FF8B00">T</tspan><tspan x="142.28" y="0" letter-spacing="-.03em" fill="#FF8B00">A</tspan></text><g opacity="0.58" fill="none" stroke-miterlimit="10" stroke-width="0.75px"><circle cx="129.32" cy="118.87" r="112.5" stroke="url(&quot;#logo_beta_svg__linear-gradient&quot;)" fill="none" stroke-width="0.75px"></circle><path d="M131.53 8.58a110.95 110.95 0 0191.29 171c-19.95 31.09-55.2 51.71-94.53 50.76a115.41 115.41 0 01-17.53-1.8A107.1 107.1 0 0141.4 184.2 126.59 126.59 0 0129 162.53 117.19 117.19 0 0121.62 140a113.296 113.296 0 01-2.5-18.18c-.1-1.68-.15-3.36-.17-5 0-2.45.05-4.85.24-7.22.08-1 .18-2.07.3-3.1A110.7 110.7 0 01131.53 8.58z" stroke="url(&quot;#logo_beta_svg__linear-gradient-2&quot;)" fill="none" stroke-width="0.75px"></path><path d="M133.73 10.78A109.41 109.41 0 01221 180.64c-20.1 30.41-55.23 50.62-93.7 48.73a119.55 119.55 0 01-17-2.16c-27.67-5.42-50.62-21-66.54-44.89a146.49 146.49 0 01-12.23-21.82A124 124 0 0124 138q-1.08-4.69-1.77-9.5-.63-4.31-.93-8.67c-.12-1.68-.19-3.37-.23-5.05a60.92 60.92 0 01.24-7.2c.1-1 .23-2.05.37-3.06a108.94 108.94 0 01112.05-93.74z" stroke="url(&quot;#logo_beta_svg__linear-gradient-3&quot;)" fill="none" stroke-width="0.75px"></path><path d="M135.94 13a107.9 107.9 0 0183.14 168.69c-20.19 29.76-55.28 49.52-92.86 46.69a123 123 0 01-16.53-2.52c-26.76-5.77-48.37-21-63.7-45.41a170.41 170.41 0 01-11.94-22 131.42 131.42 0 01-7.65-22.59q-1.12-4.69-1.87-9.48c-.46-2.88-.8-5.78-1-8.68-.13-1.68-.23-3.37-.28-5a48.37 48.37 0 01.25-7.18c.12-1 .26-2 .42-3A107.23 107.23 0 01135.94 13z" stroke="url(&quot;#logo_beta_svg__linear-gradient-4&quot;)" fill="none" stroke-width="0.75px"></path><path d="M138.15 15.2c57.2 4.38 101.5 53.14 98.39 111.76a107 107 0 01-19.33 55.75c-20.29 29.11-55.33 48.43-92 44.66a124.72 124.72 0 01-16-2.89c-25.86-6.1-46.13-21-60.87-45.92a207.45 207.45 0 01-11.72-22.12 139.88 139.88 0 01-7.78-22.63c-.78-3.13-1.43-6.3-2-9.48q-.74-4.33-1.14-8.67c-.16-1.69-.27-3.38-.34-5a40.29 40.29 0 01.26-7.18c.13-1 .29-2 .48-3A105.57 105.57 0 01138.15 15.2z" stroke="url(&quot;#logo_beta_svg__linear-gradient-5&quot;)" fill="none" stroke-width="0.75px"></path><path d="M140.35 17.4c56 5.48 98.75 53.83 94.86 111.58a105.81 105.81 0 01-19.87 54.77c-20.39 28.45-55.4 47.33-91.2 42.61a128.82 128.82 0 01-15.52-3.24c-25-6.45-43.88-21-58-46.44-3.91-7-8.07-14.41-11.5-22.27a147.91 147.91 0 01-7.9-22.67c-.82-3.14-1.5-6.3-2.08-9.48-.52-2.89-.94-5.78-1.24-8.67-.18-1.69-.31-3.38-.4-5a35 35 0 01.26-7.16c.16-1 .34-1.95.55-2.9A104 104 0 01140.35 17.4z" stroke="url(&quot;#logo_beta_svg__linear-gradient-6&quot;)" fill="none" stroke-width="0.75px"></path><path d="M142.56 19.61c54.69 6.56 96 54.52 91.33 111.39a104.68 104.68 0 01-20.42 53.78C193 212.58 158 231 123.11 225.36a130.1 130.1 0 01-15-3.61C84 215 66.44 200.83 52.89 174.8c-3.71-7.11-7.84-14.52-11.28-22.42a161.42 161.42 0 01-8-22.71c-.84-3.14-1.56-6.31-2.18-9.48q-.82-4.35-1.34-8.66c-.2-1.7-.35-3.39-.46-5a30.57 30.57 0 01.27-7.16q.25-1.45.6-2.85a102.41 102.41 0 01112.06-76.91z" stroke="url(&quot;#logo_beta_svg__linear-gradient-7&quot;)" fill="none" stroke-width="0.75px"></path><path d="M144.76 21.81C198.19 29.47 238 77 232.57 133a103.64 103.64 0 01-21 52.8C191 213 156 231 122.07 224.36a135.12 135.12 0 01-14.51-4c-23.14-7.13-39.42-20.88-52.38-47.47-3.5-7.18-7.61-14.63-11-22.57A174.89 174.89 0 0136 127.6c-.87-3.15-1.62-6.31-2.27-9.48-.6-2.9-1.08-5.79-1.46-8.66-.22-1.7-.39-3.39-.51-5a26.51 26.51 0 01.24-7.19c.18-1 .4-1.89.66-2.8a100.92 100.92 0 01112.1-72.66z" stroke="url(&quot;#logo_beta_svg__linear-gradient-8&quot;)" fill="none" stroke-width="0.75px"></path><path d="M147 24c52.16 8.73 90.5 55.91 84.28 111a102.65 102.65 0 01-21.52 51.81c-20.66 26.5-55.65 44-88.69 36.51A141.24 141.24 0 01107 219c-22.21-7.48-37.18-20.84-49.54-48-3.29-7.24-7.38-14.75-10.83-22.72a186.09 186.09 0 01-8.28-22.79q-1.35-4.7-2.35-9.44c-.63-2.9-1.15-5.79-1.56-8.65-.24-1.71-.43-3.4-.57-5.06a24.15 24.15 0 01.28-7.13c.21-.94.45-1.85.73-2.74C50.06 44.5 97.27 15.7 147 24z" stroke="url(&quot;#logo_beta_svg__linear-gradient-9&quot;)" fill="none" stroke-width="0.75px"></path><path d="M149.17 26.23c50.88 9.8 87.76 56.6 80.76 110.83a101.65 101.65 0 01-22.07 50.83c-20.75 25.84-55.76 42.9-87.86 34.47a142.82 142.82 0 01-13.51-4.7c-21.3-7.81-34.95-20.77-46.71-48.5-3.1-7.31-7.16-14.86-10.61-22.87a204.54 204.54 0 01-8.41-22.83q-1.4-4.74-2.48-9.47-1-4.38-1.66-8.66c-.27-1.71-.48-3.4-.64-5a22.12 22.12 0 01.3-7.12 28 28 0 01.78-2.69c16.41-46.83 63.5-73.67 112.11-64.29z" stroke="url(&quot;#logo_beta_svg__linear-gradient-10&quot;)" fill="none" stroke-width="0.75px"></path><path d="M151.38 28.43c49.58 10.88 85 57.3 77.23 110.66-2.71 18.81-11 35.75-22.62 49.84-20.84 25.18-55.88 41.76-87 32.43-4.87-1.46-9-3.46-13-5.06-20.36-8.16-32.73-20.71-43.87-49-2.9-7.36-6.93-15-10.39-23a223.67 223.67 0 01-8.54-22.88q-1.44-4.74-2.58-9.46c-.7-2.92-1.29-5.81-1.76-8.65-.29-1.72-.52-3.41-.7-5.06a20 20 0 01.31-7.11 22.4 22.4 0 01.84-2.63C56.88 42.88 103.83 18 151.38 28.43z" stroke="url(&quot;#logo_beta_svg__linear-gradient-11&quot;)" fill="none" stroke-width="0.75px"></path><path d="M153.59 30.64c48.28 11.94 82.25 58 73.7 110.47-3 18.5-11.42 35.08-23.17 48.85-20.92 24.53-56 40.62-86.19 30.39-4.74-1.6-8.72-3.75-12.51-5.41-19.44-8.5-30.51-20.63-41-49.54-2.71-7.42-6.71-15.08-10.17-23.17-3.2-7.46-6.22-15.18-8.66-22.92q-1.5-4.74-2.68-9.46c-.74-2.92-1.37-5.81-1.88-8.64-.31-1.73-.55-3.42-.75-5.06a18.35 18.35 0 01.32-7.1 18.86 18.86 0 01.9-2.59c18.78-44.38 65.59-67.32 112.09-55.82z" stroke="url(&quot;#logo_beta_svg__linear-gradient-12&quot;)" fill="none" stroke-width="0.75px"></path><path d="M155.79 32.84c47 13 79.51 58.69 70.18 110.29-3.25 18.19-11.89 34.42-23.72 47.87-21 23.87-56.14 39.46-85.35 28.35-4.64-1.76-8.4-4-12-5.78-18.5-8.83-28.3-20.54-38.21-50-2.5-7.48-6.47-15.19-9.94-23.32-3.21-7.49-6.28-15.23-8.79-23q-1.55-4.76-2.78-9.46-1.17-4.4-2-8.64c-.33-1.73-.6-3.42-.81-5.06a17.16 17.16 0 01.32-7.09 22 22 0 011-2.53c19.98-43.18 66.65-64.2 112.1-51.63z" stroke="url(&quot;#logo_beta_svg__linear-gradient-13&quot;)" fill="none" stroke-width="0.75px"></path><path d="M158 35.05c45.65 14 76.76 59.37 66.64 110.1C221.12 163 212.3 178.9 200.38 192c-21.08 23.22-56.29 38.29-84.52 26.32-4.52-1.92-8.08-4.35-11.51-6.14C86.79 203 78.25 191.76 69 161.64c-2.32-7.53-6.25-15.3-9.72-23.47-3.21-7.52-6.33-15.28-8.92-23q-1.59-4.76-2.88-9.46c-.81-2.93-1.51-5.82-2.08-8.63-.36-1.74-.64-3.43-.87-5.07a15.77 15.77 0 01.33-7.07 17.94 17.94 0 011-2.48C67 40.49 113.58 21.4 158 35.05z" stroke="url(&quot;#logo_beta_svg__linear-gradient-14&quot;)" fill="none" stroke-width="0.75px"></path><path d="M160.2 37.25c44.33 15.06 74 60.07 63.12 109.92-3.79 17.57-12.8 33.09-24.81 45.9-21.16 22.56-56.44 37.1-83.68 24.28-4.41-2.07-7.76-4.64-11-6.5-16.61-9.51-23.9-20.36-32.54-51.09-2.13-7.58-6-15.41-9.5-23.62-3.21-7.55-6.39-15.32-9-23q-1.65-4.77-3-9.46-1.32-4.45-2.24-8.68c-.37-1.74-.68-3.43-.92-5.06a14.78 14.78 0 01.37-7.06 15 15 0 011.08-2.42C70.41 39.7 116.81 22.51 160.2 37.25z" stroke="url(&quot;#logo_beta_svg__linear-gradient-15&quot;)" fill="none" stroke-width="0.75px"></path><path d="M162.41 39.46c43 16.08 71.26 60.76 59.59 109.73-4.06 17.26-13.26 32.42-25.36 44.91-21.23 21.9-56.59 35.9-82.85 22.25-4.3-2.24-7.44-4.94-10.51-6.87-15.66-9.83-21.72-20.25-29.71-51.61-1.94-7.62-5.8-15.51-9.28-23.76-3.21-7.58-6.45-15.37-9.17-23.08-1.12-3.18-2.12-6.34-3.12-9.45q-1.34-4.42-2.3-8.63c-.4-1.75-.72-3.44-1-5.07a13.84 13.84 0 01.34-7 14.86 14.86 0 011.14-2.38C73.76 38.91 120 23.62 162.41 39.46z" stroke="url(&quot;#logo_beta_svg__linear-gradient-16&quot;)" fill="none" stroke-width="0.75px"></path><path d="M164.62 41.67c41.66 17.07 68.51 61.45 56.06 109.54-4.33 16.95-13.68 31.79-25.91 43.93-21.3 21.26-56.75 34.66-82 20.21-4.2-2.4-7.12-5.23-10-7.23C88.05 198 83.2 188 75.87 156c-1.76-7.67-5.57-15.63-9.06-23.91-3.22-7.61-6.5-15.42-9.3-23.13-1.15-3.18-2.21-6.34-3.18-9.44s-1.73-5.84-2.4-8.63q-.63-2.62-1-5.06a13.08 13.08 0 01.35-7 13.78 13.78 0 011.2-2.32c24.63-38.39 70.77-51.8 112.14-34.84z" stroke="url(&quot;#logo_beta_svg__linear-gradient-17&quot;)" fill="none" stroke-width="0.75px"></path><path d="M166.82 43.87c40.32 18.07 65.76 62.15 52.54 109.37-4.6 16.63-14.17 31.08-26.46 42.93-21.37 20.61-56.91 33.41-81.18 18.17-4.08-2.56-6.79-5.51-9.51-7.58-13.73-10.46-17.38-20-24-52.65-1.57-7.72-5.34-15.74-8.83-24.06-3.22-7.65-6.56-15.47-9.42-23.17-1.19-3.18-2.29-6.34-3.29-9.44s-1.8-5.84-2.5-8.62c-.45-1.76-.81-3.45-1.1-5.07-.49-2.76-.48-5.09.36-7a12.61 12.61 0 011.26-2.27c25.75-37.15 71.76-48.69 112.13-30.61z" stroke="url(&quot;#logo_beta_svg__linear-gradient-18&quot;)" fill="none" stroke-width="0.75px"></path><path d="M169 46.08c39 19 63 62.84 49 109.18-4.88 16.32-14.62 30.42-27 42-21.44 20-57.07 32.13-80.35 16.13-4-2.73-6.46-5.8-9-8-12.76-10.76-15.21-19.91-21.21-53.16-1.4-7.76-5.11-15.85-8.61-24.21-3.22-7.68-6.61-15.52-9.55-23.21-1.22-3.19-2.35-6.35-3.39-9.44S57 89.53 56.3 86.75c-.46-1.76-.85-3.45-1.15-5.06-.52-2.78-.51-5.11.36-7a12.42 12.42 0 011.32-2.21C83.75 36.54 129.65 26.85 169 46.08z" stroke="url(&quot;#logo_beta_svg__linear-gradient-19&quot;)" fill="none" stroke-width="0.75px"></path><path d="M171.23 48.28c37.62 20 60.27 63.54 45.49 109-5.15 16-15.08 29.76-27.56 41-21.5 19.31-57.22 30.85-79.51 14.1-3.87-2.9-6.14-6.09-8.51-8.31-11.79-11.07-13.07-19.83-18.38-53.72-1.22-7.81-4.89-16-8.39-24.36-3.22-7.71-6.67-15.57-9.68-23.25-1.25-3.19-2.41-6.35-3.49-9.44s-1.94-5.85-2.71-8.61q-.74-2.66-1.21-5.07c-.56-2.8-.55-5.12.37-7A11 11 0 0159 70.45c28.06-34.71 73.85-42.55 112.23-22.17z" stroke="url(&quot;#logo_beta_svg__linear-gradient-20&quot;)" fill="none" stroke-width="0.75px"></path><path d="M173.44 50.49C209.71 71.4 231 114.72 215.39 159.3c-5.41 15.7-15.52 29.09-28.1 40-21.56 18.66-57.37 29.53-78.68 12.06-3.75-3.08-5.81-6.37-8-8.67-10.82-11.35-10.94-19.69-15.55-54.22-1-7.85-4.66-16.07-8.17-24.51-3.23-7.74-6.73-15.61-9.81-23.29-1.28-3.2-2.48-6.36-3.58-9.43s-2-5.86-2.82-8.62a67.06 67.06 0 01-1.27-5.07c-.59-2.81-.58-5.13.38-7a10.38 10.38 0 011.44-2.11C90.35 34.94 136 28.93 173.44 50.49z" stroke="url(&quot;#logo_beta_svg__linear-gradient-21&quot;)" fill="none" stroke-width="0.75px"></path><path d="M175.65 52.7c34.92 21.82 54.76 64.91 38.42 108.62-5.68 15.39-16 28.43-28.65 39-21.62 18-57.5 28.2-77.84 10-3.65-3.26-5.48-6.66-7.51-9-9.85-11.58-8.8-19.55-12.71-54.71-.88-7.9-4.43-16.18-8-24.66-3.23-7.77-6.78-15.66-9.93-23.33-1.32-3.2-2.55-6.36-3.69-9.43s-2.1-5.86-2.92-8.61c-.54-1.77-1-3.47-1.33-5.07-.62-2.84-.62-5.15.38-7a10.52 10.52 0 011.5-2.06c30.27-32.31 75.86-36.51 112.28-13.75z" stroke="url(&quot;#logo_beta_svg__linear-gradient-22&quot;)" fill="none" stroke-width="0.75px"></path><path d="M177.85 54.9c33.58 22.72 52 65.61 34.9 108.44-6 15.08-16.42 27.77-29.2 38-21.67 17.37-57.63 26.84-77 8-3.53-3.44-5.15-6.93-7-9.4-8.88-11.83-6.69-19.43-9.88-55.23-.71-7.94-4.21-16.29-7.73-24.81-3.23-7.8-6.84-15.71-10.06-23.38-1.35-3.2-2.61-6.36-3.79-9.42s-2.17-5.87-3-8.6c-.56-1.78-1-3.48-1.39-5.08-.64-2.86-.65-5.16.4-7a9.75 9.75 0 011.56-2c31.25-31.1 76.76-33.49 112.19-9.52z" stroke="url(&quot;#logo_beta_svg__linear-gradient-23&quot;)" fill="none" stroke-width="0.75px"></path><path d="M180.06 57.11c32.23 23.59 49.18 66.27 31.37 108.25-6.26 14.76-16.87 27.11-29.75 37-21.72 16.73-57.74 25.48-76.17 6-3.42-3.62-4.83-7.2-6.51-9.76-7.92-12.06-4.57-19.3-7-55.74-.54-8-4-16.4-7.5-25-3.23-7.83-6.9-15.76-10.19-23.42-1.37-3.21-2.68-6.36-3.89-9.42s-2.24-5.87-3.13-8.6c-.58-1.78-1.07-3.48-1.45-5.07-.68-2.88-.69-5.18.41-7a8.71 8.71 0 011.62-2c32.3-29.85 77.75-30.45 112.19-5.24z" stroke="url(&quot;#logo_beta_svg__linear-gradient-24&quot;)" fill="none" stroke-width="0.75px"></path><path d="M182.26 59.31c30.9 24.45 46.43 67 27.85 108.08-6.53 14.44-17.31 26.44-30.3 36-21.81 16.11-57.81 24.13-75.34 3.94-3.3-3.81-4.5-7.47-6-10.12C91.5 184.94 96 178 94.25 141c-.38-8-3.75-16.51-7.28-25.11C83.74 108 80 100 76.66 92.38c-1.41-3.21-2.75-6.37-4-9.42s-2.32-5.87-3.24-8.59a64.82 64.82 0 01-1.51-5.08c-.71-2.9-.72-5.19.41-7A9 9 0 0170 60.43c33.43-28.76 78.82-27.57 112.26-1.12z" stroke="url(&quot;#logo_beta_svg__linear-gradient-25&quot;)" fill="none" stroke-width="0.75px"></path><path d="M184.47 61.52c29.58 25.28 43.68 67.65 24.32 107.89-6.8 14.13-17.75 25.78-30.85 35-21.82 15.45-57.93 22.71-74.5 1.88-3.19-4-4.19-7.74-5.51-10.48-6-12.48-.39-19.06-1.38-56.78-.21-8.08-3.52-16.63-7.06-25.26-3.24-7.89-7-15.86-10.44-23.5-1.44-3.22-2.81-6.37-4.09-9.42s-2.4-5.85-3.35-8.55c-.62-1.79-1.15-3.49-1.56-5.08-.74-2.91-.76-5.2.42-6.94a8.39 8.39 0 011.74-1.85c34.47-27.6 79.79-24.64 112.26 3.09z" stroke="url(&quot;#logo_beta_svg__linear-gradient-26&quot;)" fill="none" stroke-width="0.75px"></path><path d="M186.67 63.73c28.27 26.09 40.94 68.33 20.8 107.7-7.07 13.82-18.2 25.12-31.4 34.06-21.86 14.81-58 21.3-73.67-.16-3.06-4.19-3.86-8-5-10.85-5.11-12.67 1.69-18.93 1.45-57.29 0-8.13-3.3-16.74-6.84-25.41-3.24-7.92-7.07-15.9-10.57-23.54-1.44-3.24-2.88-6.38-4.19-9.41s-2.47-5.89-3.45-8.59c-.65-1.8-1.2-3.5-1.62-5.08-.78-2.94-.8-5.22.43-6.94a8 8 0 011.8-1.79c35.51-26.43 80.84-21.72 112.26 7.3z" stroke="url(&quot;#logo_beta_svg__linear-gradient-27&quot;)" fill="none" stroke-width="0.75px"></path><path d="M188.88 65.93c27 26.9 38.18 69 17.26 107.52-7.34 13.51-18.63 24.47-31.94 33.08-21.91 14.17-58 19.89-72.83-2.2-2.94-4.39-3.55-8.28-4.51-11.21-4.19-12.86 3.77-18.82 4.29-57.81.1-8.17-3.07-16.85-6.62-25.56-3.24-8-7.12-16-10.69-23.58-1.51-3.23-3-6.38-4.3-9.41S77 70.87 76 68.17c-.68-1.8-1.24-3.5-1.68-5.08-.81-3-.84-5.24.44-6.92a7.74 7.74 0 011.85-1.74c36.54-25.31 81.87-18.82 112.27 11.5z" stroke="url(&quot;#logo_beta_svg__linear-gradient-28&quot;)" fill="none" stroke-width="0.75px"></path><path d="M191.09 68.14c25.67 27.68 35.43 69.72 13.73 107.33-7.61 13.2-19.07 23.81-32.49 32.09-21.94 13.54-58.09 18.48-72-4.23-2.81-4.58-3.23-8.55-4-11.57-3.31-13 5.82-18.71 7.11-58.33.27-8.22-2.84-17-6.39-25.71-3.24-8-7.18-16-10.82-23.62-1.54-3.23-3-6.39-4.39-9.41s-2.62-5.89-3.66-8.58c-.7-1.81-1.29-3.51-1.74-5.08-.85-3-.88-5.26.44-6.92a8 8 0 011.92-1.69c37.59-24.17 82.94-15.93 112.29 15.72z" stroke="url(&quot;#logo_beta_svg__linear-gradient-29&quot;)" fill="none" stroke-width="0.75px"></path><path d="M193.29 70.34C217.7 98.8 226 140.75 203.5 177.49c-7.88 12.89-19.51 23.16-33 31.11-22 12.91-58.11 17.06-71.17-6.28-2.67-4.77-2.92-8.8-3.5-11.93-2.43-13.22 7.88-18.59 9.95-58.84.43-8.27-2.61-17.07-6.17-25.86-3.25-8-7.24-16-10.95-23.67-1.57-3.23-3.08-6.38-4.49-9.4s-2.7-5.9-3.77-8.58c-.76-1.81-1.4-3.51-1.83-5.04-.88-3-.92-5.27.45-6.9a7.63 7.63 0 012-1.64c38.6-23.09 83.98-13.1 112.27 19.88z" stroke="url(&quot;#logo_beta_svg__linear-gradient-30&quot;)" fill="none" stroke-width="0.75px"></path><path d="M195.5 72.55c23.15 29.22 29.94 71.1 6.68 107-8.18 12.54-19.94 22.45-33.59 30.08-22 12.29-58.11 15.65-70.33-8.31-2.54-5-2.62-9.07-3-12.29-1.57-13.41 9.92-18.48 12.78-59.36.58-8.32-2.39-17.18-6-26C98.84 95.62 94.79 87.57 91 80c-1.61-3.23-3.15-6.38-4.6-9.4s-2.77-5.9-3.87-8.57c-.75-1.82-1.38-3.52-1.85-5.09-.91-3-1-5.28.46-6.89a7.61 7.61 0 012-1.58c39.71-21.99 85.15-10.25 112.36 24.08z" stroke="url(&quot;#logo_beta_svg__linear-gradient-31&quot;)" fill="none" stroke-width="0.75px"></path><path d="M197.7 74.75c21.92 30 27.19 71.8 3.16 106.79-8.42 12.26-20.38 21.85-34.14 29.13-22.05 11.66-58.1 14.23-69.5-10.35-2.39-5.16-2.32-9.33-2.5-12.65-.72-13.6 12-18.38 15.62-59.88.73-8.36-2.16-17.29-5.73-26.16-3.25-8.07-7.35-16.14-11.2-23.75-1.64-3.24-3.22-6.39-4.7-9.39s-2.84-5.91-4-8.58c-.77-1.82-1.42-3.52-1.91-5.08-1-3-1-5.3.46-6.88a7.36 7.36 0 012.1-1.53c40.72-20.84 86.25-7.36 112.34 28.33z" stroke="url(&quot;#logo_beta_svg__linear-gradient-32&quot;)" fill="none" stroke-width="0.75px"></path><path d="M199.91 77c20.7 30.72 24.44 72.48-.37 106.6-8.69 11.94-20.81 21.2-34.69 28.14-22.08 11.05-58.08 12.82-68.66-12.38-2.25-5.36-2-9.6-2-13 .11-13.79 14-18.27 18.45-60.4.88-8.4-1.94-17.39-5.51-26.3-3.25-8.1-7.41-16.19-11.33-23.79-1.67-3.24-3.28-6.39-4.8-9.39s-2.92-5.91-4.07-8.57a54.36 54.36 0 01-2-5.09c-1-3-1-5.32.47-6.87a7.13 7.13 0 012.16-1.47C129.31 24.67 174.94 39.9 199.91 77z" stroke="url(&quot;#logo_beta_svg__linear-gradient-33&quot;)" fill="none" stroke-width="0.75px"></path><path d="M202.12 79.17c19.49 31.46 21.69 73.17-3.9 106.41-9 11.63-21.25 20.56-35.24 27.16-22.11 10.43-58 11.41-67.83-14.42-2.1-5.56-1.73-9.88-1.5-13.38.94-14 16-18.17 21.28-60.92 1-8.45-1.7-17.51-5.28-26.45A264.07 264.07 0 0098.2 73.74c-1.71-3.25-3.36-6.4-4.9-9.39s-3-5.91-4.19-8.56c-.82-1.84-1.51-3.54-2-5.09-1-3.07-1.08-5.34.48-6.86a7.22 7.22 0 012.21-1.43c42.75-18.66 88.5-1.68 112.32 36.76z" stroke="url(&quot;#logo_beta_svg__linear-gradient-34&quot;)" fill="none" stroke-width="0.75px"></path><path d="M204.32 81.37c18.32 32.21 19 73.87-7.43 106.23-9.23 11.32-21.67 19.92-35.78 26.17-22.14 9.82-58 10-67-16.45a28.26 28.26 0 01-1-13.74c1.75-14.23 18-18.08 24.11-61.44 1.19-8.51-1.48-17.62-5.06-26.6a244.69 244.69 0 00-11.58-23.87c-1.74-3.25-3.42-6.4-5-9.39s-3.07-5.92-4.29-8.56a51.83 51.83 0 01-2.08-5.09c-1.06-3.09-1.12-5.35.48-6.84A7 7 0 0192 40.41c43.78-17.58 89.68 1.15 112.32 40.96z" stroke="url(&quot;#logo_beta_svg__linear-gradient-35&quot;)" fill="none" stroke-width="0.75px"></path><path d="M206.53 83.58c17.15 33 16.2 74.56-11 106-9.5 11-22.1 19.28-36.33 25.19-22.17 9.21-57.93 8.62-66.16-18.5a27.91 27.91 0 01-.49-14.1c2.56-14.45 20-18 26.94-61.95 1.34-8.56-1.25-17.73-4.84-26.75A228.36 228.36 0 00103 69.59c-1.77-3.25-3.49-6.39-5.1-9.38s-3.15-5.92-4.39-8.55a54.76 54.76 0 01-2.15-5.1c-1.08-3.1-1.15-5.37.5-6.83a7 7 0 012.34-1.32c44.8-16.51 90.89 3.97 112.33 45.17z" stroke="url(&quot;#logo_beta_svg__linear-gradient-36&quot;)" fill="none" stroke-width="0.75px"></path><path d="M208.73 85.78c16 33.71 13.46 75.26-14.48 105.86-9.77 10.7-22.54 18.64-36.88 24.2-22.2 8.61-57.86 7.24-65.32-20.53a27.83 27.83 0 010-14.46c3.38-14.7 22.06-17.9 29.78-62.47 1.49-8.61-1-17.84-4.62-26.9a211.61 211.61 0 00-11.84-24l-5.2-9.38c-1.68-3-3.22-5.92-4.5-8.55a54.44 54.44 0 01-2.2-5.09c-1.12-3.13-1.19-5.39.51-6.82a7 7 0 012.39-1.27c45.89-15.37 92.15 6.84 112.36 49.41z" stroke="url(&quot;#logo_beta_svg__linear-gradient-37&quot;)" fill="none" stroke-width="0.75px"></path><path d="M210.94 88c14.87 34.47 10.71 76-18 105.67-10 10.39-23 18-37.43 23.22-22.22 8-57.79 5.86-64.49-22.57a27.73 27.73 0 01.51-14.82c4.18-15 24-17.83 32.61-63 1.64-8.67-.8-18-4.4-27a201 201 0 00-12-24c-1.83-3.26-3.63-6.4-5.3-9.37s-3.3-5.93-4.61-8.55a52.14 52.14 0 01-2.26-5.1c-1.15-3.14-1.23-5.4.51-6.81a7.24 7.24 0 012.46-1.22C145.51 20 192 44 210.94 88z" stroke="url(&quot;#logo_beta_svg__linear-gradient-38&quot;)" fill="none" stroke-width="0.75px"></path><path d="M213.15 90.2c13.75 35.22 8 76.69-21.54 105.49-10.29 10.09-23.4 17.37-38 22.22-22.25 7.41-57.71 4.5-63.65-24.6a27.9 27.9 0 011-15.19c5-15.21 26.05-17.74 35.44-63.5 1.79-8.72-.57-18.06-4.17-27.2a190.21 190.21 0 00-12.09-24c-1.86-3.26-3.69-6.41-5.4-9.37s-3.38-5.93-4.71-8.55a50 50 0 01-2.32-5.09c-1.19-3.17-1.27-5.43.52-6.8a7.21 7.21 0 012.52-1.17c48.01-13.38 94.7 12.44 112.4 57.76z" stroke="url(&quot;#logo_beta_svg__linear-gradient-39&quot;)" fill="none" stroke-width="0.75px"></path><path d="M215.35 92.4c12.65 36 5.28 77.39-25.06 105.31-10.56 9.78-23.83 16.74-38.53 21.24-22.28 6.82-57.62 3.14-62.82-26.64a28 28 0 011.51-15.55c5.8-15.48 28-17.67 38.27-64 1.94-8.78-.34-18.17-4-27.35-3.27-8.32-7.82-16.52-12.22-24.08-1.89-3.27-3.76-6.41-5.5-9.37s-3.4-5.96-4.76-8.56a52.65 52.65 0 01-2.38-5.1c-1.23-3.18-1.31-5.44.53-6.79A7.23 7.23 0 01103 30.4c49-12.3 96 15.32 112.35 62z" stroke="url(&quot;#logo_beta_svg__linear-gradient-40&quot;)" fill="none" stroke-width="0.75px"></path><path d="M217.56 94.61c11.55 36.78 2.52 78.08-28.59 105.12-10.83 9.47-24.26 16.12-39.08 20.25-22.3 6.24-57.52 1.8-62-28.67a28.38 28.38 0 012-15.92c6.62-15.75 30-17.6 41.11-64.53 2.09-8.83-.12-18.28-3.73-27.5C124 75 119.41 66.79 115 59.24c-1.93-3.27-3.83-6.41-5.61-9.37s-3.53-5.94-4.92-8.54a51.64 51.64 0 01-2.43-5.1c-1.26-3.19-1.35-5.46.53-6.77a7.37 7.37 0 012.64-1.06c50.07-11.27 97.25 18.18 112.35 66.21z" stroke="url(&quot;#logo_beta_svg__linear-gradient-41&quot;)" fill="none" stroke-width="0.75px"></path><path d="M219.76 96.81c10.48 37.57-.22 78.78-32.11 104.94C176.54 210.91 163 217.24 148 221c-22.33 5.65-57.43.45-61.15-30.72A28.67 28.67 0 0189.38 174c7.43-16 32-17.54 43.94-65 2.23-8.89.11-18.4-3.51-27.65-3.28-8.38-7.94-16.61-12.47-24.17-2-3.27-3.9-6.41-5.71-9.36s-3.6-5.94-5-8.53a49.86 49.86 0 01-2.49-5.1c-1.3-3.22-1.4-5.49.54-6.77a7.41 7.41 0 012.7-1C158.54 16.17 206 47.44 219.76 96.81z" stroke="url(&quot;#logo_beta_svg__linear-gradient-42&quot;)" fill="none" stroke-width="0.75px"></path><path d="M222 99c9.4 38.37-3 79.47-35.65 104.75-11.37 8.85-25.12 14.87-40.17 18.28-22.36 5.07-57.32-.88-60.32-32.75a29.13 29.13 0 013-16.63c8.26-16.33 34-17.48 46.78-65.57 2.38-8.95.33-18.51-3.29-27.8-3.28-8.41-8-16.66-12.6-24.21-2-3.27-4-6.41-5.8-9.35-1.93-3.09-3.69-6-5.13-8.54a47.37 47.37 0 01-2.55-5.1c-1.34-3.23-1.44-5.5.55-6.75a7.65 7.65 0 012.75-1C161.81 15.2 209.54 48.32 222 99z" stroke="url(&quot;#logo_beta_svg__linear-gradient-43&quot;)" fill="none" stroke-width="0.75px"></path><path d="M224.17 101.23c8.35 39.18-5.72 80.16-39.17 104.56-11.64 8.54-25.55 14.26-40.72 17.3-22.4 4.49-57.22-2.2-59.48-34.79a29.49 29.49 0 013.51-17c9.07-16.62 36-17.42 49.6-66.08 2.53-9 .57-18.62-3.06-27.95-3.28-8.44-8-16.71-12.72-24.25-2-3.27-4-6.41-5.91-9.35-2-3.09-3.76-6-5.23-8.53a48.81 48.81 0 01-2.61-5.1c-1.38-3.25-1.48-5.53.55-6.75a7.67 7.67 0 012.82-.9c53.34-8.17 101.35 26.81 112.42 78.84z" stroke="url(&quot;#logo_beta_svg__linear-gradient-44&quot;)" fill="none" stroke-width="0.75px"></path><path d="M226.38 103.43c7.29 40-8.47 80.86-42.7 104.38-11.91 8.23-26 13.64-41.27 16.32-22.41 3.92-57.12-3.53-58.65-36.83a30.12 30.12 0 014-17.36c9.9-16.93 37.94-17.37 52.44-66.6 2.67-9.07.79-18.73-2.84-28.1-3.28-8.47-8.13-16.75-12.85-24.29-2.07-3.28-4.11-6.42-6-9.35-2-3.09-3.83-6-5.34-8.52a51.21 51.21 0 01-2.66-5.08c-1.41-3.27-1.52-5.55.56-6.73a7.75 7.75 0 012.88-.85c54.42-7.17 102.72 29.68 112.43 83.01z" stroke="url(&quot;#logo_beta_svg__linear-gradient-45&quot;)" fill="none" stroke-width="0.75px"></path><path d="M228.59 105.64c6.23 40.84-11.22 81.55-46.23 104.2a104.87 104.87 0 01-41.82 15.32c-22.46 3.35-57-4.83-57.81-38.86-.19-7.79 1.74-13.28 4.51-17.72 10.73-17.23 39.9-17.33 55.27-67.12 2.82-9.13 1-18.84-2.62-28.25-3.29-8.5-8.18-16.79-13-24.33-2.1-3.28-4.17-6.42-6.11-9.35-2-3.09-3.91-6-5.44-8.52a48.79 48.79 0 01-2.72-5.11c-1.45-3.28-1.56-5.57.57-6.72a7.87 7.87 0 012.93-.79c55.53-6.12 104.13 32.61 112.47 87.25z" stroke="url(&quot;#logo_beta_svg__linear-gradient-46&quot;)" fill="none" stroke-width="0.75px"></path><path d="M230.79 107.84c5.19 41.7-14 82.24-49.75 104a106.06 106.06 0 01-42.37 14.34c-22.5 2.78-56.9-6.13-57-40.9 0-8 2-13.57 5-18.09 11.56-17.53 41.87-17.28 58.11-67.63 3-9.19 1.25-19-2.4-28.4-3.29-8.53-8.24-16.84-13.1-24.37-2.14-3.29-4.25-6.42-6.21-9.35-2.09-3.09-4-5.95-5.55-8.51a46.66 46.66 0 01-2.78-5.11c-1.49-3.3-1.6-5.59.58-6.71a8.23 8.23 0 013-.75c56.62-5.07 105.51 35.58 112.47 91.48z" stroke="url(&quot;#logo_beta_svg__linear-gradient-47&quot;)" fill="none" stroke-width="0.75px"></path><path d="M233 110.05a106.18 106.18 0 01-96.2 117.18c-22.54 2.22-56.79-7.42-56.14-42.94.15-8.13 2.33-13.86 5.51-18.44C98.56 148 130 148.6 147.11 97.7c3.1-9.26 1.47-19.06-2.18-28.55-3.29-8.56-8.3-16.89-13.23-24.41-2.17-3.29-4.31-6.43-6.31-9.35-2.12-3.1-4.07-5.95-5.66-8.51a46.15 46.15 0 01-2.83-5.11c-1.53-3.32-1.64-5.61.58-6.7a8.5 8.5 0 013.06-.69c57.7-4.07 106.88 38.5 112.46 95.67z" stroke="url(&quot;#logo_beta_svg__linear-gradient-48&quot;)" fill="none" stroke-width="0.75px"></path><path d="M235.2 112.25a107.7 107.7 0 01-100.27 116c-22.59 1.66-56.68-8.72-55.31-45 .32-8.31 2.63-14.15 6-18.8 13.22-18.16 45.79-17.22 63.76-68.67 3.26-9.32 1.71-19.17-2-28.7-3.29-8.59-8.35-16.94-13.36-24.46-2.2-3.29-4.38-6.42-6.41-9.33-2.16-3.11-4.14-6-5.76-8.51a46.09 46.09 0 01-2.85-5.07c-1.57-3.34-1.68-5.64.59-6.69a8.43 8.43 0 013.11-.64c58.83-3.05 108.3 41.45 112.5 99.87z" stroke="url(&quot;#logo_beta_svg__linear-gradient-49&quot;)" fill="none" stroke-width="0.75px"></path><path d="M237.41 114.46A109.24 109.24 0 01133.06 229.3c-22.64 1.11-56.58-10-54.47-47 .48-8.48 2.92-14.45 6.51-19.17 14.07-18.47 47.76-17.18 66.6-69.19 3.4-9.37 1.93-19.28-1.73-28.84-3.3-8.62-8.41-17-13.48-24.5-2.23-3.29-4.46-6.42-6.52-9.33-2.2-3.11-4.22-6-5.86-8.51a47.78 47.78 0 01-3-5.11c-1.6-3.35-1.71-5.66.61-6.68a8.62 8.62 0 013.17-.58 108.86 108.86 0 01112.52 104.07z" stroke="url(&quot;#logo_beta_svg__linear-gradient-50&quot;)" fill="none" stroke-width="0.75px"></path><path d="M239.62 116.67a110.84 110.84 0 01-108.43 113.67c-22.69.55-56.47-11.28-53.64-49.05.65-8.65 3.22-14.74 7-19.53C99.47 143 134.28 144.6 154 92.05c3.54-9.44 2.16-19.39-1.51-29-3.3-8.65-8.47-17-13.61-24.54-2.26-3.3-4.52-6.42-6.61-9.33-2.25-3.11-4.31-6-6-8.5a46 46 0 01-3-5.12c-1.64-3.36-1.75-5.68.61-6.66a9.09 9.09 0 013.24-.54c61.02-1.11 111.1 47.4 112.5 108.31z" stroke="url(&quot;#logo_beta_svg__linear-gradient-51&quot;)" fill="none" stroke-width="0.75px"></path><path d="M241.82 118.87a112.5 112.5 0 01-112.5 112.5c-22.74 0-56.36-12.54-52.8-51.08.81-8.83 3.51-15 7.51-19.89 15.75-19.1 51.67-17.14 72.27-70.23 3.7-9.51 2.38-19.5-1.3-29.17-3.3-8.68-8.52-17.08-13.74-24.58-2.29-3.3-4.59-6.43-6.71-9.33-2.29-3.11-4.38-6-6.08-8.5a48.14 48.14 0 01-3.07-5.11c-1.67-3.39-1.79-5.71.62-6.66a9.3 9.3 0 013.29-.48 112.5 112.5 0 01112.51 112.53z" stroke="url(&quot;#logo_beta_svg__linear-gradient-52&quot;)" fill="none" stroke-width="0.75px"></path></g></svg>