<svg width="28" height="28" fill="none" xmlns="http://www.w3.org/2000/svg"><g clip-path="url(#SDAO_svg__clip0)"><g filter="url(#SDAO_svg__filter1_d)"><path d="M0 14C0 6.268 6.268 0 14 0s14 6.268 14 14-6.268 14-14 14S0 21.732 0 14z" fill="url(#SDAO_svg__paint0_linear)"></path><path d="M17.256 21.114c.566-.872.814-1.971.75-3.02a4.937 4.937 0 00-1.219-2.986c-.725-.82-1.603-1.36-2.402-1.857-.803-.492-1.563-.95-2.124-1.508a3.59 3.59 0 01-1.079-2.001 3.88 3.88 0 01.254-2.38c.304-.702.822-1.342 1.42-1.932a7.729 7.729 0 013.088.268 9.088 9.088 0 01.594 16.316 5.38 5.38 0 00.718-.9zm5.763-7.107a9.234 9.234 0 00-5.665-8.516 8.12 8.12 0 00-.351-.164 8.412 8.412 0 00-2.732-.648 8.534 8.534 0 00-2.697.29c-.108.026-.27.064-.427.115-.157.048-.316.094-.419.134a9.844 9.844 0 00-2.502 1.374 10.643 10.643 0 00-2.022 2.01c-.268.349-.46.683-.586.926-.125.244-.185.397-.185.397-.095.198-.166.405-.046.225.11-.187.307-.509.494-.773.185-.265.356-.474.37-.463.005.004-.027.047-.073.112l-.172.241c.016.01-.054.158-.137.327-.084.169-.178.36-.233.451-.046.097-.217.428-.362.77-.148.341-.267.693-.29.794-.043.153-.03.157.019.065.046-.09.135-.27.254-.49.235-.438.6-1.01.84-1.348.24-.338.036.024.06.039.219-.35.36-.504.604-.835L6.798 9l.096-.114c.079-.097.195-.226.323-.37.257-.286.591-.606.821-.81l.132-.122c.047-.044.111-.097.193-.165.08-.067.18-.15.304-.24.164-.123.159-.13.153-.138l.011.015a4.73 4.73 0 01.334-.24c.13-.08.262-.16.347-.22l.01.016a8.78 8.78 0 011.087-.57l.008.017c.092-.045.189-.079.26-.107a.54.54 0 01.121-.04l.007.016a904.482 904.482 0 00.45-.163c-.353.31-.678.664-.953 1.075-.597.877-.849 2.011-.774 3.082.039.537.17 1.09.394 1.61.23.518.559.99.932 1.39.764.797 1.652 1.303 2.458 1.783.81.473 1.573.915 2.15 1.468.59.54.96 1.232 1.099 2.056a4.067 4.067 0 01-.302 2.446c-.306.667-.795 1.274-1.37 1.81l-.178.033a9.038 9.038 0 01-2.605.025 8.657 8.657 0 01-.822-.184 7.666 7.666 0 01-2.47-1.086c-.785-.517-1.455-1.2-1.972-1.865-.26-.332-.48-.633-.64-.847l-.256-.346c-.118-.18-.245-.357-.164-.156.093.195.274.526.444.801.168.277.32.5.306.51-.01.007-.133-.17-.254-.35-.015.01-.125-.112-.246-.262a3.687 3.687 0 01-.293-.43 9.294 9.294 0 01-.78-1.58c-.051-.157-.065-.153-.052-.046.011.11.06.323.138.577a8.442 8.442 0 00.669 1.573c.22.394-.041.025-.063.037.121.192.208.338.3.481l.144.22c.054.075.113.155.182.245 0 0 .01.019.033.05.023.031.057.076.1.13l.15.193.194.228a8.555 8.555 0 00.95.93c.026.02.063.054.121.096.116.084.293.23.58.42.187.131.197.116.2.11l-.01.016c.104.05.249.143.399.228.151.08.302.164.407.211l-.008.017c.214.082.418.187.635.262.108.04.214.083.322.12l.33.097-.005.018.162.048.142.035c.083.02.139.035.138.04l-.004.018c.22.07.678.118.675.137l.003-.018a9.94 9.94 0 001.224.106c.186.012.364.003.538.001.175-.003.346-.004.517-.023a8.332 8.332 0 002.554-.58c3.606-1.257 6.195-4.683 6.195-8.718z" fill="#fff"></path></g></g><defs id="SDAO_svg__defs64"><filter id="SDAO_svg__filter0_d" x="-30" y="-22" width="92" height="92" filterUnits="userSpaceOnUse" color-interpolation-filters="sRGB"><feFlood flood-opacity="0" result="BackgroundImageFix" id="SDAO_svg__feFlood26"></feFlood><feColorMatrix in="SourceAlpha" type="matrix" values="0 0 0 0 0 0 0 0 0 0 0 0 0 0 0 0 0 0 127 0" id="SDAO_svg__feColorMatrix28"></feColorMatrix><feOffset id="SDAO_svg__feOffset30"></feOffset><feGaussianBlur stdDeviation="16" id="SDAO_svg__feGaussianBlur32"></feGaussianBlur><feColorMatrix type="matrix" values="0 0 0 0 0.533333 0 0 0 0 0.596078 0 0 0 0 0.666667 0 0 0 0.15 0" id="SDAO_svg__feColorMatrix34"></feColorMatrix><feBlend mode="normal" in2="BackgroundImageFix" result="effect1_dropShadow" id="SDAO_svg__feBlend36"></feBlend><feBlend mode="normal" in="SourceGraphic" in2="effect1_dropShadow" result="shape" id="SDAO_svg__feBlend38"></feBlend></filter><filter id="SDAO_svg__filter1_d" x="-14" y="-22" width="92" height="92" filterUnits="userSpaceOnUse" color-interpolation-filters="sRGB"><feFlood flood-opacity="0" result="BackgroundImageFix" id="SDAO_svg__feFlood41"></feFlood><feColorMatrix in="SourceAlpha" type="matrix" values="0 0 0 0 0 0 0 0 0 0 0 0 0 0 0 0 0 0 127 0" id="SDAO_svg__feColorMatrix43"></feColorMatrix><feOffset id="SDAO_svg__feOffset45"></feOffset><feGaussianBlur stdDeviation="16" id="SDAO_svg__feGaussianBlur47"></feGaussianBlur><feColorMatrix type="matrix" values="0 0 0 0 0.533333 0 0 0 0 0.596078 0 0 0 0 0.666667 0 0 0 0.15 0" id="SDAO_svg__feColorMatrix49"></feColorMatrix><feBlend mode="normal" in2="BackgroundImageFix" result="effect1_dropShadow" id="SDAO_svg__feBlend51"></feBlend><feBlend mode="normal" in="SourceGraphic" in2="effect1_dropShadow" result="shape" id="SDAO_svg__feBlend53"></feBlend></filter><linearGradient id="SDAO_svg__paint0_linear" x1="32.02" y1="38" x2="32.02" y2="10" gradientUnits="userSpaceOnUse" gradientTransform="translate(-18 -10)"><stop stop-color="#003EC7" id="SDAO_svg__stop56"></stop><stop offset="1" stop-color="#520EB5" id="SDAO_svg__stop58"></stop></linearGradient><clipPath id="SDAO_svg__clip0"><rect width="48" height="48" rx="8" fill="#fff" id="SDAO_svg__rect61"></rect></clipPath></defs></svg>