<svg width="24" height="24" fill="none" xmlns="http://www.w3.org/2000/svg"><path d="M17.771 15.645l-.015.019-3.382 4.289a.177.177 0 00.138.285h1.7c.111 0 .215-.05.286-.138l1.273-4.456zm0 0H3.563a.176.176 0 01-.176-.176v-1.406c0-.097.079-.176.176-.176h16.31c.618 0 .962.71.581 1.195 0 0 0 0 0 0L16.498 20.1l1.273-4.456zM6.244 8.335l-.015.02H20.437c.097 0 .176.079.176.175v1.406c0 .097-.079.176-.175.176H4.125a.738.738 0 01-.58-1.195L7.503 3.9a.364.364 0 01.286-.138h1.7c.147 0 .228.171.138.285l-3.382 4.29z" fill="#212121" stroke="#6C6C6C" stroke-width="0.023"></path></svg>